<svg viewBox="0 0 24 24" fill="none" xmlns="http://www.w3.org/2000/svg">
<path d="M12 21C16.9706 21 21 16.9706 21 12C21 7.02944 16.9706 3 12 3C7.02944 3 3 7.02944 3 12C3 16.9706 7.02944 21 12 21Z" stroke="currentColor" stroke-width="2" stroke-linejoin="round"/>
<path d="M11.0192 14.0406C10.9992 13.5506 11.0792 13.0707 11.2492 12.6107C11.4692 12.1607 11.7792 11.7707 12.1592 11.4407C12.4692 11.1707 12.7592 10.8706 13.0192 10.5406C13.1992 10.2806 13.2992 9.97069 13.2992 9.65069C13.3192 9.30069 13.2092 8.95067 12.9792 8.69067C12.7192 8.45067 12.3792 8.33066 12.0292 8.36066C11.6792 8.34066 11.3292 8.46067 11.0592 8.69067C10.8092 8.92067 10.6792 9.24068 10.6892 9.57068H8.98919C8.96919 8.84068 9.27919 8.15066 9.82919 7.68066C10.4492 7.20066 11.2292 6.95066 12.0192 6.99066C12.8092 6.94066 13.5892 7.19066 14.2092 7.68066C14.7492 8.17066 15.0292 8.8707 14.9892 9.5907C14.9392 10.4207 14.5592 11.2007 13.9292 11.7507L13.0692 12.5607C12.7392 12.9807 12.5692 13.5007 12.5992 14.0307H11.0092L11.0192 14.0406ZM10.8992 16.1307C10.8992 15.8907 10.9792 15.6507 11.1592 15.4907C11.3492 15.3207 11.5992 15.2307 11.8592 15.2407C12.1192 15.2307 12.3692 15.3207 12.5592 15.4907C12.7292 15.6607 12.8192 15.8907 12.8192 16.1207C12.8192 16.3507 12.7292 16.5807 12.5692 16.7407C12.3792 16.9207 12.1192 17.0107 11.8592 16.9907C11.5992 17.0107 11.3392 16.9207 11.1492 16.7407C10.9892 16.5807 10.8992 16.3507 10.8992 16.1207V16.1307Z" fill="#111111"/>
</svg>
