<svg width="24" height="24" viewBox="0 0 24 24" fill="none" xmlns="http://www.w3.org/2000/svg">
<path d="M18.6622 16.4288L17.8299 15.8744C17.6517 16.142 17.613 16.4789 17.7259 16.78L18.6622 16.4288ZM16.4314 18.6605L16.7825 17.7242C16.4814 17.6112 16.1443 17.65 15.8767 17.8284L16.4314 18.6605ZM20.0011 19.9991L19.6499 20.9354C20.0171 21.0731 20.4309 20.9835 20.7082 20.7062C20.9854 20.4289 21.0751 20.0152 20.9374 19.648L20.0011 19.9991ZM18.9993 11.9996C18.9993 13.4343 18.5687 14.7654 17.8299 15.8744L19.4945 16.9832C20.4452 15.556 20.9993 13.841 20.9993 11.9996H18.9993ZM11.9996 5C15.8654 5 18.9993 8.13384 18.9993 11.9996H20.9993C20.9993 7.02927 16.97 3 11.9996 3V5ZM5 11.9996C5 8.13384 8.13384 5 11.9996 5V3C7.02927 3 3 7.02927 3 11.9996H5ZM11.9996 18.9993C8.13384 18.9993 5 15.8654 5 11.9996H3C3 16.97 7.02927 20.9993 11.9996 20.9993V18.9993ZM15.8767 17.8284C14.7672 18.5681 13.4353 18.9993 11.9996 18.9993V20.9993C13.8422 20.9993 15.5583 20.4444 16.9861 19.4925L15.8767 17.8284ZM16.0803 19.5968L19.6499 20.9354L20.3522 19.0628L16.7825 17.7242L16.0803 19.5968ZM20.9374 19.648L19.5985 16.0777L17.7259 16.78L19.0647 20.3502L20.9374 19.648Z" fill="#111111"/>
<circle cx="8" cy="12" r="1" fill="#111111"/>
<circle cx="12" cy="12" r="1" fill="#111111"/>
<circle cx="16" cy="12" r="1" fill="#111111"/>
</svg>
