<svg width="24" height="24" viewBox="0 0 24 24" fill="none" xmlns="http://www.w3.org/2000/svg">
<path d="M11.9287 14.4545C13.2736 14.4545 14.3638 13.3556 14.3638 12C14.3638 10.6443 13.2736 9.54541 11.9287 9.54541C10.5839 9.54541 9.49365 10.6443 9.49365 12C9.49365 13.3556 10.5839 14.4545 11.9287 14.4545Z" stroke="black" stroke-width="2" stroke-linecap="round" stroke-linejoin="round"/>
<path d="M17.9351 14.4545C17.827 14.7013 17.7948 14.9751 17.8425 15.2405C17.8903 15.5059 18.0158 15.7508 18.2029 15.9436L18.2516 15.9927C18.4026 16.1447 18.5223 16.3252 18.604 16.5238C18.6857 16.7225 18.7277 16.9354 18.7277 17.1505C18.7277 17.3655 18.6857 17.5784 18.604 17.7771C18.5223 17.9757 18.4026 18.1562 18.2516 18.3082C18.1009 18.4603 17.9218 18.581 17.7247 18.6634C17.5277 18.7457 17.3164 18.7881 17.1031 18.7881C16.8897 18.7881 16.6785 18.7457 16.4814 18.6634C16.2844 18.581 16.1053 18.4603 15.9545 18.3082L15.9058 18.2591C15.7145 18.0705 15.4716 17.9439 15.2083 17.8958C14.945 17.8477 14.6734 17.8802 14.4286 17.9891C14.1885 18.0928 13.9838 18.265 13.8395 18.4845C13.6953 18.704 13.6179 18.9613 13.6169 19.2245V19.3636C13.6169 19.7976 13.4459 20.2138 13.1414 20.5207C12.837 20.8276 12.4241 21 11.9935 21C11.563 21 11.15 20.8276 10.8456 20.5207C10.5412 20.2138 10.3701 19.7976 10.3701 19.3636V19.29C10.3638 19.0192 10.2769 18.7565 10.1205 18.5362C9.96421 18.3159 9.74573 18.1481 9.49351 18.0545C9.24869 17.9456 8.97712 17.9131 8.71381 17.9613C8.4505 18.0094 8.20753 18.1359 8.01623 18.3245L7.96753 18.3736C7.81677 18.5258 7.63773 18.6465 7.44065 18.7288C7.24358 18.8112 7.03233 18.8536 6.81899 18.8536C6.60566 18.8536 6.39441 18.8112 6.19734 18.7288C6.00026 18.6465 5.82122 18.5258 5.67045 18.3736C5.51952 18.2217 5.39978 18.0412 5.31809 17.8425C5.23639 17.6439 5.19434 17.431 5.19434 17.2159C5.19434 17.0009 5.23639 16.7879 5.31809 16.5893C5.39978 16.3906 5.51952 16.2102 5.67045 16.0582L5.71916 16.0091C5.90628 15.8163 6.03181 15.5714 6.07955 15.3059C6.12729 15.0405 6.09506 14.7668 5.98701 14.52C5.88412 14.278 5.71328 14.0716 5.49551 13.9263C5.27774 13.7809 5.02255 13.7029 4.76136 13.7018H4.62338C4.19283 13.7018 3.77992 13.5294 3.47548 13.2225C3.17103 12.9157 3 12.4994 3 12.0655C3 11.6315 3.17103 11.2152 3.47548 10.9084C3.77992 10.6015 4.19283 10.4291 4.62338 10.4291H4.69643C4.96509 10.4228 5.22565 10.3351 5.44424 10.1775C5.66282 10.0199 5.82932 9.79969 5.92208 9.54545C6.03013 9.29868 6.06236 9.02493 6.01461 8.75952C5.96687 8.4941 5.84135 8.24919 5.65422 8.05636L5.60552 8.00727C5.45458 7.8553 5.33485 7.67483 5.25315 7.47617C5.17145 7.27752 5.12941 7.06459 5.12941 6.84955C5.12941 6.6345 5.17145 6.42157 5.25315 6.22292C5.33485 6.02426 5.45458 5.84379 5.60552 5.69182C5.75629 5.53967 5.93533 5.41898 6.1324 5.33663C6.32948 5.25428 6.54072 5.21189 6.75406 5.21189C6.9674 5.21189 7.17864 5.25428 7.37572 5.33663C7.57279 5.41898 7.75183 5.53967 7.9026 5.69182L7.9513 5.74091C8.1426 5.92953 8.38557 6.05606 8.64887 6.10419C8.91218 6.15231 9.18375 6.11982 9.42857 6.01091H9.49351C9.73358 5.90719 9.93833 5.73498 10.0825 5.51547C10.2268 5.29596 10.3042 5.03873 10.3052 4.77545V4.63636C10.3052 4.20237 10.4762 3.78616 10.7807 3.47928C11.0851 3.1724 11.498 3 11.9286 3C12.3591 3 12.772 3.1724 13.0765 3.47928C13.3809 3.78616 13.5519 4.20237 13.5519 4.63636V4.71C13.553 4.97328 13.6304 5.23051 13.7746 5.45002C13.9188 5.66953 14.1236 5.84174 14.3636 5.94545C14.6085 6.05437 14.88 6.08686 15.1433 6.03873C15.4066 5.99061 15.6496 5.86408 15.8409 5.67545L15.8896 5.62636C16.0404 5.47422 16.2194 5.35352 16.4165 5.27118C16.6136 5.18883 16.8248 5.14644 17.0382 5.14644C17.2515 5.14644 17.4627 5.18883 17.6598 5.27118C17.8569 5.35352 18.0359 5.47422 18.1867 5.62636C18.3376 5.77834 18.4574 5.95881 18.5391 6.15746C18.6208 6.35611 18.6628 6.56905 18.6628 6.78409C18.6628 6.99913 18.6208 7.21207 18.5391 7.41072C18.4574 7.60937 18.3376 7.78984 18.1867 7.94182L18.138 7.99091C17.9509 8.18374 17.8253 8.42865 17.7776 8.69406C17.7299 8.95948 17.7621 9.23322 17.8701 9.48V9.54545C17.973 9.78745 18.1439 9.99383 18.3616 10.1392C18.5794 10.2846 18.8346 10.3626 19.0958 10.3636H19.2338C19.6643 10.3636 20.0772 10.536 20.3817 10.8429C20.6861 11.1498 20.8571 11.566 20.8571 12C20.8571 12.434 20.6861 12.8502 20.3817 13.1571C20.0772 13.464 19.6643 13.6364 19.2338 13.6364H19.1607C18.8995 13.6374 18.6443 13.7154 18.4266 13.8608C18.2088 14.0062 18.038 14.2126 17.9351 14.4545Z" stroke="black" stroke-width="2" stroke-linecap="round" stroke-linejoin="round"/>
</svg>
